<svg version="1" xmlns="http://www.w3.org/2000/svg" width="666.667" height="666.667" viewBox="0 0 500.000000 500.000000"><path d="M234.7 12c-1.3 1.1-2.8 3.1-3.1 4.4-.7 2.9-1.2 3.1-12.9 4.6l-8.7 1.2-4-3.6c-2.2-2-4.8-3.6-5.8-3.6-3.7 0-23.5 6-25.4 7.6-1 1-2.3 3.6-2.9 5.9-1.1 4.2-1.2 4.3-10.5 8l-9.4 3.7-3.4-2.1c-1.8-1.2-4.5-2.1-5.9-2.1-2.8 0-19.7 9.3-23.3 12.9-1.9 1.8-2.4 3.4-2.4 7.1 0 4.8 0 4.8-7.4 10.5l-7.4 5.6-6.2-.7-6.2-.7-9.5 9.4-9.5 9.4.7 6.4.6 6.4-5.7 7.3c-5.6 7.3-5.6 7.4-10.3 7.4-5.9 0-7.9 1.9-15 14.3-5.6 9.8-6.1 12.4-3 17.4l2.1 3.4-3.2 8.2c-3.5 8.7-5.9 11.7-9.4 11.7-4 0-6.5 4.2-9.6 15.6-1.7 6-3 11.7-3 12.6 0 1 1.6 3.6 3.6 5.8l3.6 3.9-1.3 9.7c-1.3 9.5-1.3 9.6-5 12-2.1 1.3-4.3 3.2-4.9 4.3-.5 1.1-1 7.6-1 14.4 0 11.1.2 12.7 2.1 15.1 1.1 1.4 2.7 2.6 3.4 2.6 2.9 0 4.3 3.1 5.5 12.5l1.3 9.7-3.1 3c-1.8 1.6-3.4 3.9-3.8 5.2-.3 1.3.8 7.4 2.5 13.7 3.2 12 5.7 15.9 10.4 15.9 3.6 0 4.4 1.1 8.3 10.5l3.7 8.8-2.1 3.8c-1.2 2.1-2.2 4.8-2.2 6 0 2.8 8.2 17.9 12.2 22.5 2.6 3 3.6 3.4 7.9 3.4 4.8 0 4.9.1 10.4 7 5.9 7.4 6 7.7 4.9 15.3l-.7 4.7 9.4 9.6 9.4 9.6 5-.6c8-1 8.1-1 15.5 4.9 6.9 5.5 7 5.6 7 10.4 0 4.3.4 5.3 3.4 7.9 4.6 4 19.7 12.2 22.5 12.2 1.2 0 3.9-1 6-2.2l3.7-2.1 9.1 3.7c8.9 3.7 9.1 3.9 10.2 8 .6 2.3 1.9 5 2.9 6 1.9 1.6 21.7 7.6 25.4 7.6 1 0 3.6-1.6 5.8-3.6l4-3.7 9 1.2c11 1.4 11.9 1.7 12.6 4.7.4 1.3 1.8 3.3 3.1 4.4 2.3 1.8 4.1 2 15.3 2 11.2 0 13-.2 15.3-2 1.3-1.1 2.7-3.1 3.1-4.4.7-3 1.6-3.3 12.6-4.7l9-1.2 4 3.7c2.2 2 4.8 3.6 5.8 3.6.9 0 6.7-1.3 12.7-3 11.4-3 15.5-5.7 15.5-10 0-3.7 1.3-4.9 10.2-8.6l9.1-3.8 3.8 2.2c2.1 1.2 4.8 2.2 6 2.2 2.8 0 17.9-8.2 22.5-12.2 3.1-2.7 3.4-3.5 3.3-8-.2-3.8.2-5.2 1.7-6.2 1-.8 4.6-3.5 7.9-6 4.4-3.5 6.5-4.5 8-4 1.1.3 3.7.9 5.8 1.1 3.8.5 4.1.3 13.4-9l9.6-9.6-.6-4.3c-.2-2.4-.8-5-1.1-5.8-.4-1 1.4-4.2 5.1-9 3.1-4.1 6.1-7.8 6.6-8.1.5-.4 2.8-.4 5.1-.2 3.8.5 4.5.2 7.3-3 4.1-4.6 12.3-19.8 12.3-22.6 0-1.2-1-3.9-2.2-6l-2.2-3.8 3.8-9.1c3.7-8.9 4.9-10.2 8.6-10.2 4.3 0 7-4.1 10-15.5 1.7-6.1 3-11.8 3-12.7 0-1-1.6-3.6-3.6-5.8l-3.6-4 1.2-10.1c1.2-10.1 1.3-10.1 4.6-11.5 5.7-2.4 6.4-4.4 6.4-18.4 0-14-.7-16-6.4-18.4-3.3-1.4-3.4-1.4-4.6-11.5l-1.2-10.1 3.6-4c2-2.2 3.6-4.8 3.6-5.8 0-.9-1.3-6.6-3-12.6-3.1-11.7-5.6-15.6-9.9-15.6-4 0-4.7-.9-8.5-10-4.2-9.8-4.2-10.4-1.6-13.7 1.1-1.4 2-3.7 2-5.1 0-3-8-18-12.2-22.8-2.6-3-3.6-3.4-7.9-3.4-4.8 0-4.9-.1-10.5-7.1-5.7-7.2-6-8-4.8-15.7l.6-4.3-9.3-9.4c-9.8-10.1-11.8-11-18.2-8.6-2.8 1.1-7.3-1.4-15.1-8.2-3.7-3.1-4-3.8-3.8-7.9.3-4-.1-4.8-3.2-7.6C374.8 44 359.8 36 356.8 36c-1.4 0-3.7.9-5.1 2-3.3 2.6-3.9 2.6-13.7-1.6-8.9-3.7-10-4.6-10-8.1 0-4.6-3.9-7.2-15.5-10.3-6-1.7-11.8-3-12.7-3-1 0-3.6 1.6-5.8 3.6l-3.9 3.6-9.6-1.3c-9.4-1.1-12.5-2.5-12.5-5.4 0-.7-1.2-2.3-2.6-3.4-2.4-1.9-4-2.1-15.4-2.1-11.2 0-13 .2-15.3 2zm37.6 19.5c43.6 5.1 81.9 20.8 115.5 47.3 9.4 7.4 25.9 23.9 33.8 33.7 20.2 25.3 35.3 56.5 42.7 88 3.8 16 6.7 37.7 6.7 49.5 0 10.7-2.7 31.8-6.2 48-6.3 29.5-21.5 61.9-41 87.2-20.6 26.6-45.5 46.7-77.3 62.3-23.5 11.6-41.7 17-72.1 21.4-18.4 2.7-31.2 2.6-51-.3-27.7-4.2-47.7-10.2-69.9-21.1-68.1-33.4-112.9-97.7-122-175.2-2-17.2-1.9-29.2.5-47.6 5.5-43.4 21.2-80 48.7-114.2C109 75.4 150.5 49 195.8 37.4c26.4-6.8 52.2-8.8 76.5-5.9z"/><path d="M233.5 34c-49.8 5-94 24.1-128.1 55.2-42.7 39-66.1 87.1-71.5 146.8-3 34 5 74.2 21.6 108.8 18.1 37.5 46.6 68.8 82.5 90.8 24.4 14.8 56.4 26.2 83 29.3 5.2.6 13.4 1.6 18.2 2.2 8.7 1.2 13.2 1 32.3-1.1 50.7-5.6 96.7-27.4 132-62.7 35.1-35.1 56.9-81.1 62.5-131.8 2.1-19.1 2.3-23.6 1.1-32.3-.6-4.8-1.6-13-2.2-18.2-2.3-19-9.8-44.3-18.8-63.5C415 91.7 351.9 45.6 279.2 35.6c-14.5-2-34.3-2.7-45.7-1.6zm30.8 60c49 4.7 91.5 30.3 118.1 71.3 33.9 52 33.6 119.5-.7 171.5-12.5 18.9-26 32.4-44.9 44.9-45.9 30.3-103.7 34.4-153.5 10.8-38.8-18.3-69-52.6-82.2-93.5-12.9-39.8-9.8-80.4 9-118.5 25.7-52.2 78.8-85.7 138.4-87.4 2.8 0 9.9.4 15.8.9z"/><path d="M223 99c-55.2 9.8-101 49.8-119 104-9.4 28.5-9.5 66.1 0 95 7.8 23.9 19.4 42.5 37.9 61.1 32.9 32.8 72.8 47.7 120.1 44.8 36.9-2.3 69.7-17.5 97.1-44.8 27.3-27.4 42.5-60.2 44.8-97.1 2.9-47.3-12-87.2-44.8-120.1-23.6-23.6-50.2-37.5-81.9-43-15.1-2.5-39.4-2.5-54.2.1zm53.9 5.5c3.7 3.2 5.4 8.1 4.7 14.2-1.2 11.4-17.8 95.2-19.6 99.1-5 10.9-19 10.9-24 0-1.8-3.9-18.4-87.7-19.6-99.1-.7-6.1 1-11 4.7-14.2l3.1-2.5h47.6l3.1 2.5zm-127.5 58c6.3 3.3 76.5 59.8 79.4 63.8 2.7 3.9 2.8 8.5.2 13-2.4 4-6.3 6-11.9 5.9-2.1 0-21.6-5.8-43.2-12.8-21.7-6.9-41.6-13.3-44.4-14.1-9.2-2.8-16.1-6.9-17.9-10.6-.9-1.9-1.6-4.1-1.6-4.8 0-2.1 23-38.7 25.7-40.9 3.4-2.7 8-2.5 13.7.5zm214.9-.5c2.7 2.2 25.7 38.8 25.7 40.9 0 .7-.7 2.9-1.6 4.8-1.8 3.7-8.7 7.8-17.9 10.6-2.7.8-22.7 7.2-44.4 14.1-21.6 7-41.1 12.8-43.2 12.8-5.6.1-9.5-1.9-11.9-5.9-2.6-4.5-2.5-9.1.3-13 2.8-4 73-60.5 79.3-63.8 5.7-3 10.3-3.2 13.7-.5zM224 256.3c3.4 1.7 7 7.4 7 11.1 0 1.7-.9 4.5-1.9 6.2-1.9 3.1-69.1 57.9-77.8 63.4-5.6 3.6-12.8 4.1-16.1 1.3-2.5-2.1-24-36.8-24.8-40-.9-3.4 2.6-8.5 7.6-11.2 6.4-3.6 94.7-31.9 99.5-32 2.2 0 5.1.5 6.5 1.2zm107 13.3c25 8 47.7 15.8 50.5 17.3 5.5 2.9 9 7.9 8.1 11.4-.8 3.2-22.3 37.9-24.8 40-3.3 2.8-10.5 2.3-16.1-1.3-8.7-5.5-75.9-60.3-77.8-63.4-2.5-4.1-2.4-8.6.4-12.7 2.7-4.1 6-5.9 10.7-5.9 1.9 0 24 6.6 49 14.6zm-72.6 8.4c1.9 1.7 3.9 4.5 4.5 6.3 1.3 4.1 18.1 91.6 18.8 97.9.7 6.2-1.1 11.3-5.1 14.3-3.3 2.5-3.3 2.5-26.6 2.5s-23.3 0-26.6-2.5c-4-3-5.8-8.1-5.1-14.3.7-6.3 17.5-93.8 18.8-97.9.6-1.8 2.6-4.6 4.5-6.3 2.9-2.5 4.3-3 8.4-3 4.1 0 5.5.5 8.4 3z"/></svg>